# xmcd
# Copyright (C) 1995-1998 Ti Kan
#
# Track frame offsets:
#       150
#       15712
#       29966
#       47768
#       62305
#       81737
#       97916
#       112734
#       125946
#       141173
#       157588
#       171322
#       188913
#       204999
#       221919
#
# Disc length: 3162 seconds
#
# Revision: 0
# Processed by: cddbd v1.5.2PL0 Copyright (c) Steve Scherf et al.
# Submitted via: CD-Transfer v1.0
#
DISCID=d50c580f
DTITLE=Stress - 
DYEAR=09
DGENRE=
TTITLE0=Rester De Marbre
TTITLE1=Tout Les Memes
TTITLE2=Shoote
TTITLE3=Saint Profit
TTITLE4=En Ton Nom
TTITLE5=V
TTITLE6=System D
TTITLE7=Vers La Lu,Iere
TTITLE8=Sacrifices
TTITLE9=Plus Rien Nous Touche
TTITLE10=Billy La Rockstar
TTITLE11=La Peur De L Autre
TTITLE12=Nananah
TTITLE13=Italienn 08
TTITLE14=Question De Survie
EXTD=
EXTT0=
EXTT1=
EXTT2=
EXTT3=
EXTT4=
EXTT5=
EXTT6=
EXTT7=
EXTT8=
EXTT9=
EXTT10=
EXTT11=
EXTT12=
EXTT13=
EXTT14=
PLAYORDER=
